<?xml version="1.0" standalone="no"?>
<!DOCTYPE svg PUBLIC "-//W3C//DTD SVG 20010904//EN"
 "http://www.w3.org/TR/2001/REC-SVG-20010904/DTD/svg10.dtd">
<svg version="1.0" xmlns="http://www.w3.org/2000/svg"
 width="200.000000pt" height="200.000000pt" viewBox="0 0 200.000000 200.000000"
 preserveAspectRatio="xMidYMid meet">

<g transform="translate(0.000000,200.000000) scale(0.100000,-0.100000)"
fill="#000000" stroke="none">
<path d="M0 1000 l0 -1000 1000 0 1000 0 0 1000 0 1000 -1000 0 -1000 0 0
-1000z m910 910 c0 -5 7 -10 15 -10 8 0 15 -7 15 -15 0 -8 7 -15 15 -15 11 0
15 -11 15 -40 0 -29 -4 -40 -15 -40 -8 0 -15 7 -15 15 0 9 -9 15 -25 15 -14 0
-25 5 -25 10 0 6 -7 10 -15 10 -8 0 -15 7 -15 15 0 8 7 15 15 15 9 0 15 9 15
25 0 14 5 25 10 25 6 0 10 -4 10 -10z m-20 -105 c0 -9 9 -15 25 -15 16 0 25
-6 25 -15 0 -11 11 -15 40 -15 l40 0 0 -65 c0 -51 3 -65 15 -65 10 0 15 -10
15 -30 0 -20 -5 -30 -15 -30 -10 0 -15 10 -15 30 0 17 -4 30 -10 30 -5 0 -10
11 -10 25 0 16 -6 25 -15 25 -8 0 -15 7 -15 15 0 8 -7 15 -15 15 -8 0 -15 -7
-15 -15 0 -8 -7 -15 -15 -15 -8 0 -15 -7 -15 -15 0 -11 -12 -15 -50 -15 -38 0
-50 4 -50 15 0 8 -7 15 -15 15 -8 0 -15 7 -15 15 0 8 -7 15 -15 15 -8 0 -15 5
-15 10 0 6 7 10 15 10 8 0 15 7 15 15 0 8 7 15 15 15 8 0 15 7 15 15 0 9 9 15
25 15 16 0 25 6 25 15 0 8 7 15 15 15 8 0 15 -7 15 -15z m-170 -165 c0 -5 14
-10 30 -10 20 0 30 -5 30 -15 0 -12 13 -15 55 -15 42 0 55 -3 55 -15 0 -12 13
-15 55 -15 30 0 55 -4 55 -10 0 -5 -25 -10 -55 -10 -30 0 -55 5 -55 10 0 6
-25 10 -55 10 -42 0 -55 3 -55 15 0 10 -10 15 -30 15 -20 0 -30 5 -30 15 0 8
-4 15 -10 15 -5 0 -10 5 -10 10 0 6 5 10 10 10 6 0 10 -4 10 -10z m110 -135
c0 -10 10 -15 30 -15 20 0 30 -5 30 -15 0 -12 20 -15 120 -15 73 0 120 -4 120
-10 0 -5 7 -10 15 -10 8 0 15 -7 15 -15 0 -12 -16 -15 -80 -15 -64 0 -80 3
-80 15 0 12 -13 15 -55 15 -30 0 -55 5 -55 10 0 6 -13 10 -30 10 -20 0 -30 5
-30 15 0 9 -9 15 -25 15 -16 0 -25 6 -25 15 0 9 9 15 25 15 16 0 25 -6 25 -15z
m-110 -30 c0 -8 7 -15 15 -15 8 0 15 -4 15 -10 0 -15 -19 -12 -36 4 -16 17
-19 36 -4 36 6 0 10 -7 10 -15z m60 -130 c0 -8 7 -15 15 -15 8 0 15 -7 15 -15
0 -11 11 -15 40 -15 22 0 40 -4 40 -10 0 -5 11 -10 25 -10 16 0 25 -6 25 -15
0 -9 -9 -15 -25 -15 -16 0 -25 6 -25 15 0 11 -11 15 -40 15 -22 0 -40 5 -40
10 0 6 -7 10 -15 10 -8 0 -15 7 -15 15 0 8 -7 15 -15 15 -8 0 -15 7 -15 15 0
8 7 15 15 15 8 0 15 -7 15 -15z m-350 -40 c0 -20 5 -25 25 -25 16 0 25 -6 25
-15 0 -12 -16 -15 -80 -15 -64 0 -80 3 -80 15 0 8 -7 15 -15 15 -9 0 -15 9
-15 25 0 24 2 25 70 25 68 0 70 -1 70 -25z m570 -40 c0 -8 -7 -15 -15 -15 -8
0 -15 7 -15 15 0 8 7 15 15 15 8 0 15 -7 15 -15z m-570 -140 c0 -13 26 -15
175 -15 110 0 175 -4 175 -10 0 -5 7 -10 15 -10 10 0 15 -10 15 -30 0 -16 5
-30 10 -30 6 0 10 -18 10 -40 0 -29 4 -40 15 -40 12 0 15 -13 15 -55 0 -42 -3
-55 -15 -55 -8 0 -15 7 -15 15 0 8 -4 15 -10 15 -5 0 -10 25 -10 55 0 42 -3
55 -15 55 -9 0 -15 9 -15 25 0 16 -6 25 -15 25 -8 0 -15 7 -15 15 0 12 -17 15
-95 15 -78 0 -95 3 -95 15 0 12 -16 15 -80 15 l-80 0 0 -30 c0 -20 -5 -30 -15
-30 -8 0 -15 -7 -15 -15 0 -8 7 -15 15 -15 8 0 15 7 15 15 0 8 7 15 15 15 8 0
15 7 15 15 0 12 13 15 55 15 42 0 55 -3 55 -15 0 -11 -12 -15 -45 -15 -25 0
-45 -5 -45 -11 0 -32 -71 -54 -84 -26 -5 10 -7 10 -12 0 -3 -7 -12 -13 -20
-13 -8 0 -14 -7 -14 -15 0 -8 -7 -15 -15 -15 -8 0 -15 -5 -15 -11 0 -14 -25
-39 -39 -39 -6 0 -11 -7 -11 -15 0 -8 -7 -15 -15 -15 -8 0 -15 -7 -15 -15 0
-8 -7 -15 -15 -15 -8 0 -15 -4 -15 -10 0 -5 -4 -10 -10 -10 -5 0 -10 16 -10
36 0 35 18 64 39 64 6 0 11 7 11 15 0 8 7 15 15 15 8 0 15 7 15 15 0 8 5 15
11 15 14 0 39 25 39 39 0 6 7 11 15 11 8 0 15 7 15 15 0 8 7 15 15 15 8 0 15
7 15 15 0 8 5 15 10 15 6 0 10 11 10 25 0 21 5 25 30 25 20 0 30 -5 30 -15z
m320 -120 c0 -16 6 -25 15 -25 11 0 15 -11 15 -40 0 -29 -4 -40 -15 -40 -9 0
-15 9 -15 25 0 16 -6 25 -15 25 -8 0 -15 5 -15 11 0 19 -28 39 -54 39 -16 0
-26 6 -26 15 0 12 13 15 55 15 52 0 55 -1 55 -25z m-130 -40 c0 -9 9 -15 25
-15 16 0 25 -6 25 -15 0 -9 -9 -15 -25 -15 -16 0 -25 6 -25 15 0 12 -13 15
-55 15 -42 0 -55 -3 -55 -15 0 -11 -11 -15 -40 -15 -22 0 -40 -4 -40 -10 0 -5
-7 -10 -15 -10 -8 0 -15 -7 -15 -15 0 -8 -7 -15 -15 -15 -9 0 -15 -9 -15 -25
0 -14 -4 -25 -10 -25 -5 0 -10 11 -10 25 0 14 5 25 10 25 6 0 10 7 10 15 0 8
7 15 15 15 8 0 15 5 15 10 0 6 7 10 15 10 8 0 15 7 15 15 0 11 11 15 40 15 29
0 40 4 40 15 0 12 13 15 55 15 42 0 55 -3 55 -15z m320 -30 c0 -8 7 -15 15
-15 9 0 15 -9 15 -25 0 -16 6 -25 15 -25 8 0 15 -7 15 -15 0 -8 -7 -15 -15
-15 -12 0 -15 -13 -15 -55 0 -42 3 -55 15 -55 8 0 15 -4 15 -10 0 -5 -7 -10
-15 -10 -8 0 -15 -7 -15 -15 0 -10 -10 -15 -30 -15 l-30 0 0 110 c0 67 -4 110
-10 110 -5 0 -10 11 -10 25 0 20 5 25 25 25 16 0 25 -6 25 -15z m-620 -25 c0
-5 -7 -10 -15 -10 -11 0 -15 -11 -15 -40 0 -22 -4 -40 -10 -40 -5 0 -10 -7
-10 -15 0 -8 5 -15 10 -15 6 0 10 -7 10 -15 0 -8 -4 -15 -10 -15 -5 0 -10 7
-10 15 0 8 -7 15 -15 15 -11 0 -15 11 -15 40 0 29 4 40 15 40 8 0 15 5 15 10
0 15 23 39 38 40 6 0 12 -4 12 -10z m1110 -30 c0 -29 -4 -40 -15 -40 -11 0
-15 -11 -15 -40 0 -29 -4 -40 -15 -40 -9 0 -15 -9 -15 -25 l0 -25 -105 0 -105
0 0 25 c0 25 0 25 95 25 78 0 95 3 95 15 0 8 5 15 10 15 6 0 10 25 10 55 0 42
3 55 15 55 8 0 15 5 15 10 0 6 7 10 15 10 11 0 15 -11 15 -40z m-810 5 c0 -8
5 -15 10 -15 6 0 10 -18 10 -40 0 -22 -4 -40 -10 -40 -5 0 -10 7 -10 15 0 8
-7 15 -15 15 -8 0 -15 5 -15 10 0 6 -25 10 -55 10 -30 0 -55 -4 -55 -10 0 -5
-7 -10 -15 -10 -12 0 -15 -17 -15 -95 0 -78 3 -95 15 -95 8 0 15 -7 15 -15 0
-8 7 -15 15 -15 8 0 15 -7 15 -15 0 -11 11 -15 40 -15 29 0 40 4 40 15 0 8 7
15 15 15 8 0 15 7 15 15 0 8 5 15 10 15 6 0 10 23 10 50 0 38 4 50 15 50 8 0
15 -4 15 -10 0 -5 7 -10 15 -10 10 0 15 -10 15 -30 0 -20 -5 -30 -15 -30 -9 0
-15 -9 -15 -25 0 -16 -6 -25 -15 -25 -8 0 -15 -5 -15 -11 0 -24 -30 -39 -79
-39 -28 0 -51 5 -51 10 0 6 -13 10 -30 10 -20 0 -30 5 -30 15 0 8 -4 15 -10
15 -5 0 -10 11 -10 25 0 16 -6 25 -15 25 -12 0 -15 14 -15 70 0 56 3 70 15 70
9 0 15 9 15 25 0 14 5 25 10 25 6 0 10 7 10 15 0 10 10 15 30 15 20 0 30 5 30
15 0 12 13 15 55 15 42 0 55 -3 55 -15z m100 0 c0 -8 -4 -15 -10 -15 -5 0 -10
7 -10 15 0 8 5 15 10 15 6 0 10 -7 10 -15z m840 0 c0 -8 7 -15 15 -15 9 0 15
-9 15 -25 0 -22 -4 -25 -40 -25 -22 0 -40 5 -40 10 0 6 -7 10 -15 10 -10 0
-15 10 -15 30 0 28 2 30 40 30 29 0 40 -4 40 -15z m-860 -55 c0 -5 -7 -10 -15
-10 -8 0 -15 5 -15 10 0 6 7 10 15 10 8 0 15 -4 15 -10z m50 0 c0 -5 -7 -10
-15 -10 -8 0 -15 5 -15 10 0 6 7 10 15 10 8 0 15 -4 15 -10z m-400 -55 c0 -8
-7 -15 -15 -15 -8 0 -15 7 -15 15 0 8 7 15 15 15 8 0 15 -7 15 -15z m1320 -15
c0 -28 -2 -30 -40 -30 -22 0 -40 -4 -40 -10 0 -5 -7 -10 -15 -10 -8 0 -15 5
-15 10 0 6 7 10 15 10 8 0 15 7 15 15 0 9 9 15 25 15 16 0 25 6 25 15 0 8 7
15 15 15 10 0 15 -10 15 -30z m-1080 -40 l0 -40 -40 0 -40 0 0 40 0 40 40 0
40 0 0 -40z m300 0 c0 -22 5 -40 10 -40 6 0 10 -25 10 -55 0 -30 -4 -55 -10
-55 -5 0 -10 -11 -10 -25 0 -16 -6 -25 -15 -25 -10 0 -15 -10 -15 -30 0 -20
-5 -30 -15 -30 -10 0 -15 10 -15 30 0 20 5 30 15 30 12 0 15 14 15 65 0 51 -3
65 -15 65 -10 0 -15 10 -15 30 0 20 5 30 15 30 9 0 15 9 15 25 0 16 6 25 15
25 11 0 15 -11 15 -40z m-650 0 c0 -5 7 -10 15 -10 11 0 15 -11 15 -40 0 -22
5 -40 10 -40 6 0 10 -13 10 -30 0 -20 5 -30 15 -30 9 0 15 -9 15 -25 0 -16 6
-25 15 -25 8 0 15 -7 15 -15 0 -8 5 -15 10 -15 6 0 10 -11 10 -25 0 -16 6 -25
15 -25 10 0 15 -10 15 -30 0 -25 4 -30 25 -30 14 0 25 -4 25 -10 0 -5 7 -10
15 -10 10 0 15 -10 15 -30 0 -20 -5 -30 -15 -30 -8 0 -15 7 -15 15 0 8 -4 15
-10 15 -5 0 -10 7 -10 15 0 8 -7 15 -15 15 -8 0 -15 5 -15 10 0 6 -7 10 -15
10 -8 0 -15 7 -15 15 0 8 -4 15 -10 15 -5 0 -10 11 -10 25 0 16 -6 25 -15 25
-8 0 -15 7 -15 15 0 8 -7 15 -15 15 -10 0 -15 10 -15 30 0 17 -4 30 -10 30 -5
0 -10 11 -10 25 0 16 -6 25 -15 25 -9 0 -15 9 -15 25 0 16 -6 25 -15 25 -11 0
-15 11 -15 40 0 29 4 40 15 40 8 0 15 -4 15 -10z m80 0 c0 -5 -7 -10 -15 -10
-8 0 -15 5 -15 10 0 6 7 10 15 10 8 0 15 -4 15 -10z m50 0 c0 -5 -4 -10 -10
-10 -5 0 -10 5 -10 10 0 6 5 10 10 10 6 0 10 -4 10 -10z m1220 -95 c0 -42 -3
-55 -15 -55 -12 0 -15 13 -15 55 0 42 3 55 15 55 12 0 15 -13 15 -55z m-220
-15 c0 -22 -4 -40 -10 -40 -5 0 -10 7 -10 15 0 8 -7 15 -15 15 -8 0 -15 -7
-15 -15 0 -8 -7 -15 -15 -15 -11 0 -15 11 -15 40 l0 40 40 0 40 0 0 -40z m60
5 c0 -8 -7 -15 -15 -15 -8 0 -15 7 -15 15 0 8 7 15 15 15 8 0 15 -7 15 -15z
m-350 -30 c0 -11 11 -15 40 -15 22 0 40 -4 40 -10 0 -5 11 -10 25 -10 16 0 25
-6 25 -15 0 -8 -7 -15 -15 -15 -12 0 -15 -13 -15 -55 0 -30 -4 -55 -10 -55 -5
0 -10 -11 -10 -25 0 -16 -6 -25 -15 -25 -11 0 -15 -12 -15 -45 0 -33 4 -45 15
-45 9 0 15 -9 15 -25 0 -14 5 -25 10 -25 6 0 10 -7 10 -15 0 -8 7 -15 15 -15
8 0 15 -4 15 -10 0 -5 -11 -10 -25 -10 -14 0 -25 5 -25 10 0 6 -7 10 -15 10
-10 0 -15 10 -15 30 0 20 -5 30 -15 30 -12 0 -15 17 -15 95 0 78 3 95 15 95 9
0 15 9 15 25 0 20 -5 25 -25 25 -16 0 -25 6 -25 15 0 8 -7 15 -15 15 -8 0 -15
7 -15 15 0 8 -7 15 -15 15 -9 0 -15 9 -15 25 0 21 5 25 30 25 20 0 30 -5 30
-15z m-330 -25 c0 -5 -7 -10 -15 -10 -10 0 -15 -10 -15 -30 0 -16 -4 -30 -10
-30 -5 0 -10 -11 -10 -25 0 -16 -6 -25 -15 -25 -10 0 -15 -10 -15 -30 0 -20
-5 -30 -15 -30 -8 0 -15 7 -15 15 0 9 -9 15 -25 15 -16 0 -25 6 -25 15 0 9 -9
15 -25 15 -14 0 -25 5 -25 10 0 6 -13 10 -30 10 -20 0 -30 5 -30 15 0 11 11
15 40 15 29 0 40 -4 40 -15 0 -10 10 -15 30 -15 20 0 30 5 30 15 0 9 9 15 25
15 16 0 25 6 25 15 0 8 7 15 15 15 8 0 15 5 15 10 0 15 23 39 38 40 6 0 12 -4
12 -10z m650 -135 c0 -11 -11 -15 -40 -15 -29 0 -40 4 -40 15 0 11 11 15 40
15 29 0 40 -4 40 -15z m30 -125 c0 -64 -3 -80 -15 -80 -8 0 -15 -7 -15 -15 0
-8 -7 -15 -15 -15 -11 0 -15 11 -15 40 0 22 -4 40 -10 40 -5 0 -10 14 -10 30
0 20 -5 30 -15 30 -9 0 -15 9 -15 25 0 24 3 25 55 25 l55 0 0 -80z m-730 45
c0 -9 9 -15 25 -15 21 0 25 -5 25 -30 0 -25 -4 -30 -25 -30 -21 0 -25 5 -25
30 0 20 -5 30 -15 30 -8 0 -15 7 -15 15 0 8 7 15 15 15 8 0 15 -7 15 -15z
m130 -40 c0 -30 -4 -55 -10 -55 -5 0 -10 -13 -10 -30 0 -20 -5 -30 -15 -30 -8
0 -15 -4 -15 -10 0 -5 -18 -10 -40 -10 -22 0 -40 5 -40 10 0 6 -7 10 -15 10
-8 0 -15 -4 -15 -10 0 -5 -11 -10 -25 -10 -14 0 -25 5 -25 10 0 6 -7 10 -15
10 -8 0 -15 7 -15 15 0 8 -7 15 -15 15 -8 0 -15 7 -15 15 0 8 7 15 15 15 8 0
15 5 15 10 0 6 11 10 25 10 14 0 25 -4 25 -10 0 -5 14 -10 30 -10 20 0 30 -5
30 -15 0 -11 11 -15 40 -15 29 0 40 4 40 15 0 8 7 15 15 15 12 0 15 13 15 55
0 30 5 55 10 55 6 0 10 -25 10 -55z m-240 -20 c0 -8 -7 -15 -15 -15 -8 0 -15
7 -15 15 0 8 7 15 15 15 8 0 15 -7 15 -15z m860 -130 c0 -8 7 -15 15 -15 9 0
15 -9 15 -25 0 -20 -5 -25 -25 -25 -14 0 -25 5 -25 10 0 6 -7 10 -15 10 -8 0
-15 -4 -15 -10 0 -5 -7 -10 -15 -10 -8 0 -15 5 -15 10 0 6 7 10 15 10 10 0 15
10 15 30 0 25 4 30 25 30 16 0 25 -6 25 -15z"/>
</g>
</svg>
